<mxfile host="app.diagrams.net" agent="Mozilla/5.0 (Windows NT 10.0; Win64; x64) AppleWebKit/537.36 (KHTML, like Gecko) Chrome/138.0.0.0 Safari/537.36" version="27.2.0">
  <diagram name="Страница — 1" id="JDpIX1J_mvJvXugXwh0e">
    <mxGraphModel dx="1042" dy="623" grid="1" gridSize="10" guides="1" tooltips="1" connect="1" arrows="1" fold="1" page="1" pageScale="1" pageWidth="827" pageHeight="1169" math="0" shadow="0">
      <root>
        <mxCell id="0" />
        <mxCell id="1" parent="0" />
        <mxCell id="sMdjEIgu3hESC0nsqHef-1" value="&lt;span style=&quot;font-size: 24px;&quot;&gt;Decorator&lt;/span&gt;&lt;div&gt;&lt;span style=&quot;font-size: 24px;&quot;&gt;&lt;br&gt;&lt;/span&gt;&lt;/div&gt;" style="text;html=1;align=center;verticalAlign=middle;resizable=0;points=[];autosize=1;strokeColor=none;fillColor=none;" parent="1" vertex="1">
          <mxGeometry x="140" y="45" width="130" height="70" as="geometry" />
        </mxCell>
        <mxCell id="sMdjEIgu3hESC0nsqHef-2" value="&lt;font style=&quot;font-size: 14px;&quot;&gt;&lt;span style=&quot;text-align: left;&quot;&gt;&amp;nbsp; &amp;nbsp;&lt;b&gt;Conditioner&lt;/b&gt;&lt;/span&gt;&lt;/font&gt;&lt;div&gt;&lt;font style=&quot;font-size: 14px;&quot;&gt;&lt;b&gt;&lt;br style=&quot;padding: 0px; margin: 0px; text-align: left;&quot;&gt;&lt;div style=&quot;text-align: justify;&quot;&gt;&lt;span style=&quot;background-color: transparent; color: light-dark(rgb(0, 0, 0), rgb(255, 255, 255)); font-weight: normal;&quot;&gt;&amp;nbsp; &amp;nbsp; &amp;nbsp; &amp;nbsp;start(): bool&lt;/span&gt;&lt;/div&gt;&lt;/b&gt;&lt;span style=&quot;&quot;&gt;&lt;div style=&quot;text-align: justify;&quot;&gt;&lt;span style=&quot;background-color: transparent; color: light-dark(rgb(0, 0, 0), rgb(255, 255, 255));&quot;&gt;&amp;nbsp; &amp;nbsp; &amp;nbsp; &amp;nbsp;stop(): bool&lt;/span&gt;&lt;/div&gt;&lt;/span&gt;&lt;span style=&quot;&quot;&gt;&lt;div style=&quot;text-align: justify;&quot;&gt;&lt;span style=&quot;background-color: transparent; color: light-dark(rgb(0, 0, 0), rgb(255, 255, 255));&quot;&gt;&amp;nbsp; &amp;nbsp; &amp;nbsp; &amp;nbsp;name: str&lt;/span&gt;&lt;/div&gt;&lt;/span&gt;&lt;span style=&quot;&quot;&gt;&lt;div style=&quot;text-align: justify;&quot;&gt;&lt;span style=&quot;background-color: transparent; color: light-dark(rgb(0, 0, 0), rgb(255, 255, 255));&quot;&gt;&amp;nbsp; &amp;nbsp; &amp;nbsp; &amp;nbsp;temp: int&lt;/span&gt;&lt;/div&gt;&lt;/span&gt;&lt;span style=&quot;&quot;&gt;&lt;div style=&quot;text-align: justify;&quot;&gt;&lt;span style=&quot;background-color: transparent; color: light-dark(rgb(0, 0, 0), rgb(255, 255, 255));&quot;&gt;&amp;nbsp; &amp;nbsp; &amp;nbsp; &amp;nbsp;mode: str&lt;/span&gt;&lt;/div&gt;&lt;/span&gt;&lt;span style=&quot;&quot;&gt;&lt;div style=&quot;text-align: justify;&quot;&gt;&lt;span style=&quot;background-color: transparent; color: light-dark(rgb(0, 0, 0), rgb(255, 255, 255));&quot;&gt;&amp;nbsp; &amp;nbsp; &amp;nbsp; &amp;nbsp;fan: str&lt;/span&gt;&lt;/div&gt;&lt;/span&gt;&lt;/font&gt;&lt;/div&gt;" style="whiteSpace=wrap;html=1;" parent="1" vertex="1">
          <mxGeometry x="360" y="45" width="200" height="180" as="geometry" />
        </mxCell>
        <mxCell id="sMdjEIgu3hESC0nsqHef-3" value="&lt;span style=&quot;color: rgb(255, 255, 255); font-family: Helvetica; font-size: 12px; font-style: normal; font-variant-ligatures: normal; font-variant-caps: normal; font-weight: 400; letter-spacing: normal; orphans: 2; text-align: left; text-indent: 0px; text-transform: none; widows: 2; word-spacing: 0px; -webkit-text-stroke-width: 0px; white-space: normal; text-decoration-thickness: initial; text-decoration-style: initial; text-decoration-color: initial; float: none; display: inline !important;&quot;&gt;DecoratorConditioner&lt;/span&gt;" style="text;whiteSpace=wrap;html=1;" parent="1" vertex="1">
          <mxGeometry x="760" y="305" width="150" height="40" as="geometry" />
        </mxCell>
        <mxCell id="sMdjEIgu3hESC0nsqHef-4" value="" style="edgeStyle=orthogonalEdgeStyle;rounded=0;orthogonalLoop=1;jettySize=auto;html=1;" parent="1" source="sMdjEIgu3hESC0nsqHef-6" target="sMdjEIgu3hESC0nsqHef-2" edge="1">
          <mxGeometry relative="1" as="geometry" />
        </mxCell>
        <mxCell id="sMdjEIgu3hESC0nsqHef-5" value="inherits" style="edgeLabel;html=1;align=center;verticalAlign=middle;resizable=0;points=[];" parent="sMdjEIgu3hESC0nsqHef-4" vertex="1" connectable="0">
          <mxGeometry x="0.192" y="5" relative="1" as="geometry">
            <mxPoint as="offset" />
          </mxGeometry>
        </mxCell>
        <mxCell id="sMdjEIgu3hESC0nsqHef-6" value="&lt;b style=&quot;font-size: 14px; text-align: left;&quot;&gt;Aircool&amp;nbsp; &amp;nbsp;&lt;/b&gt;" style="rounded=0;whiteSpace=wrap;html=1;" parent="1" vertex="1">
          <mxGeometry x="360" y="275" width="200" height="60" as="geometry" />
        </mxCell>
        <mxCell id="sMdjEIgu3hESC0nsqHef-7" value="" style="edgeStyle=orthogonalEdgeStyle;rounded=0;orthogonalLoop=1;jettySize=auto;html=1;" parent="1" source="sMdjEIgu3hESC0nsqHef-9" target="sMdjEIgu3hESC0nsqHef-6" edge="1">
          <mxGeometry relative="1" as="geometry" />
        </mxCell>
        <mxCell id="sMdjEIgu3hESC0nsqHef-8" value="&lt;span data-end=&quot;358&quot; data-start=&quot;338&quot;&gt;implements / wraps&lt;/span&gt;" style="edgeLabel;html=1;align=center;verticalAlign=middle;resizable=0;points=[];" parent="sMdjEIgu3hESC0nsqHef-7" vertex="1" connectable="0">
          <mxGeometry x="-0.0067" relative="1" as="geometry">
            <mxPoint as="offset" />
          </mxGeometry>
        </mxCell>
        <mxCell id="sMdjEIgu3hESC0nsqHef-9" value="&lt;b style=&quot;font-size: 14px; text-align: left;&quot;&gt;DecoratorConditioner&lt;/b&gt;" style="rounded=0;whiteSpace=wrap;html=1;" parent="1" vertex="1">
          <mxGeometry x="360" y="395" width="200" height="60" as="geometry" />
        </mxCell>
        <mxCell id="sMdjEIgu3hESC0nsqHef-10" value="" style="edgeStyle=orthogonalEdgeStyle;rounded=0;orthogonalLoop=1;jettySize=auto;html=1;" parent="1" source="sMdjEIgu3hESC0nsqHef-11" target="sMdjEIgu3hESC0nsqHef-9" edge="1">
          <mxGeometry relative="1" as="geometry" />
        </mxCell>
        <mxCell id="sMdjEIgu3hESC0nsqHef-11" value="&lt;span style=&quot;text-align: left;&quot;&gt;&lt;font style=&quot;font-size: 14px;&quot;&gt;&lt;b&gt;ModeDecorator&lt;/b&gt;&lt;/font&gt;&lt;/span&gt;" style="rounded=0;whiteSpace=wrap;html=1;" parent="1" vertex="1">
          <mxGeometry x="230" y="525" width="200" height="60" as="geometry" />
        </mxCell>
        <mxCell id="sMdjEIgu3hESC0nsqHef-12" value="" style="edgeStyle=orthogonalEdgeStyle;rounded=0;orthogonalLoop=1;jettySize=auto;html=1;" parent="1" source="sMdjEIgu3hESC0nsqHef-14" target="sMdjEIgu3hESC0nsqHef-9" edge="1">
          <mxGeometry relative="1" as="geometry" />
        </mxCell>
        <mxCell id="sMdjEIgu3hESC0nsqHef-13" value="extends" style="edgeLabel;html=1;align=center;verticalAlign=middle;resizable=0;points=[];" parent="sMdjEIgu3hESC0nsqHef-12" vertex="1" connectable="0">
          <mxGeometry x="0.6978" y="3" relative="1" as="geometry">
            <mxPoint as="offset" />
          </mxGeometry>
        </mxCell>
        <mxCell id="sMdjEIgu3hESC0nsqHef-14" value="&lt;b style=&quot;font-size: 14px; text-align: left;&quot;&gt;FanDecorator&lt;/b&gt;" style="rounded=0;whiteSpace=wrap;html=1;" parent="1" vertex="1">
          <mxGeometry x="470" y="525" width="200" height="60" as="geometry" />
        </mxCell>
      </root>
    </mxGraphModel>
  </diagram>
</mxfile>
